<?xml version="1.0" standalone="no"?>
<!DOCTYPE svg PUBLIC "-//W3C//DTD SVG 20010904//EN"
 "http://www.w3.org/TR/2001/REC-SVG-20010904/DTD/svg10.dtd">
<svg version="1.0" xmlns="http://www.w3.org/2000/svg"
 width="325.000000pt" height="325.000000pt" viewBox="0 0 325.000000 325.000000"
 preserveAspectRatio="xMidYMid meet">

<g transform="translate(0.000000,325.000000) scale(0.100000,-0.100000)"
fill="#000000" stroke="none">
<path d="M1171 3080 c-49 -12 -394 -357 -417 -417 -35 -90 0 -199 75 -238 27
-14 29 -13 35 8 3 12 6 59 6 105 l0 82 166 170 167 169 116 3 116 3 -50 51
c-66 68 -124 85 -214 64z"/>
<path d="M1875 3075 c-43 -15 -105 -75 -105 -100 0 -12 18 -15 108 -15 l107
-1 168 -167 c187 -187 195 -202 138 -256 -47 -45 -69 -33 -226 124 l-140 140
-82 0 c-54 0 -83 -4 -83 -11 0 -6 86 -96 190 -199 165 -162 197 -189 235 -199
60 -15 83 -14 132 8 61 28 98 72 118 143 29 106 21 120 -185 328 -98 98 -191
185 -206 193 -46 23 -123 29 -169 12z"/>
<path d="M1194 2925 c-21 -30 -17 -72 8 -89 19 -14 74 -16 395 -16 360 0 374
1 393 20 25 25 26 62 2 83 -16 15 -63 17 -401 19 -372 3 -384 2 -397 -17z"/>
<path d="M1141 2681 l-121 -118 0 -82 c0 -56 4 -81 12 -81 16 0 388 372 388
388 0 8 -24 12 -79 12 l-78 0 -122 -119z"/>
<path d="M902 2638 c-9 -9 -12 -113 -12 -405 0 -378 1 -393 19 -403 31 -16 56
-12 79 13 22 23 22 27 22 395 0 359 -1 373 -20 392 -22 22 -69 27 -88 8z"/>
<path d="M822 2043 c-54 -44 -86 -108 -86 -168 1 -28 7 -62 14 -76 20 -38 351
-369 390 -389 47 -24 102 -34 144 -26 35 7 136 91 136 114 0 9 -30 12 -104 12
l-104 0 -171 170 -171 169 -1 88 c-1 48 -4 98 -7 111 l-7 23 -33 -28z"/>
<path d="M1030 1982 l0 -78 122 -122 122 -122 72 0 c41 0 76 5 79 11 11 17
-360 389 -389 389 -3 0 -6 -35 -6 -78z"/>
<path d="M1863 1775 c-38 -16 -67 -44 -88 -84 l-16 -31 112 0 112 0 163 -162
164 -163 0 -107 c0 -59 4 -109 9 -112 18 -12 76 41 103 94 59 117 40 155 -189
381 -118 118 -189 180 -212 188 -46 15 -119 13 -158 -4z"/>
<path d="M1190 1631 c-15 -30 -12 -66 8 -84 17 -15 59 -17 400 -17 l381 0 15
22 c21 30 20 54 -4 78 -19 19 -33 20 -405 20 -370 0 -385 -1 -395 -19z"/>
<path d="M1760 1498 c0 -19 363 -378 383 -378 14 0 17 11 17 71 l0 71 -116
124 -116 124 -84 0 c-59 0 -84 -4 -84 -12z"/>
<path d="M2200 1340 c-19 -19 -20 -33 -20 -399 0 -416 -1 -411 59 -411 61 0
61 -2 61 418 l0 381 -22 15 c-30 21 -54 20 -78 -4z"/>
<path d="M860 775 c-50 -23 -70 -44 -96 -100 -32 -67 -32 -140 -1 -186 13 -19
97 -108 188 -198 111 -111 178 -169 207 -182 60 -26 128 -24 175 5 35 22 87
80 87 98 0 4 -47 8 -104 8 l-104 0 -49 39 c-26 21 -103 95 -170 163 -110 111
-123 129 -123 160 0 43 34 78 76 78 24 0 53 -24 169 -140 l141 -141 90 3 89 3
-125 129 c-69 70 -160 159 -202 198 -77 69 -77 69 -145 74 -49 3 -78 0 -103
-11z"/>
<path d="M1979 618 c-153 -151 -209 -213 -209 -229 0 -5 35 -9 77 -9 l78 0
117 117 118 118 0 77 c0 58 -3 78 -13 78 -7 0 -83 -68 -168 -152z"/>
<path d="M2310 663 l0 -108 -166 -168 -165 -167 -104 0 c-57 0 -106 -4 -110
-9 -9 -15 54 -80 98 -103 54 -27 121 -27 172 -1 22 12 117 99 211 195 160 161
173 177 188 230 9 31 16 63 16 71 0 33 -39 104 -74 135 -61 53 -66 47 -66 -75z"/>
<path d="M1202 344 c-26 -18 -31 -74 -8 -93 10 -9 120 -12 403 -11 351 0 389
2 401 17 19 26 14 57 -11 81 -23 22 -27 22 -393 22 -318 0 -373 -2 -392 -16z"/>
</g>
</svg>
